<svg width="50" height="50" viewBox="0 0 50 50" fill="none" xmlns="http://www.w3.org/2000/svg">
<path fill-rule="evenodd" clip-rule="evenodd" d="M25 2.23215C13.75 2.23215 4.6317 11.3505 4.6317 22.6005C4.6317 31.596 10.4688 39.2299 18.5603 41.9308C19.5759 42.1205 19.9554 41.4844 19.9554 40.9487C19.9554 40.4576 19.933 38.8616 19.933 37.154C14.2634 38.3817 13.0692 34.7545 13.0692 34.7545C12.1429 32.3996 10.8036 31.7746 10.8036 31.7746C8.95089 30.5134 10.9375 30.5357 10.9375 30.5357C12.9799 30.6808 14.0625 32.6339 14.0625 32.6339C15.8817 35.7478 18.8281 34.8438 19.9888 34.3304C20.1674 33.0134 20.7031 32.1205 21.2835 31.6071C16.7634 31.0938 11.9978 29.3415 11.9978 21.5402C11.9978 19.3192 12.7902 17.5 14.096 16.0714C13.8839 15.558 13.192 13.4821 14.2969 10.6808C14.2969 10.6808 16.0045 10.1339 19.8996 12.7679C21.529 12.3214 23.2701 12.0871 25 12.0871C26.7299 12.0982 28.471 12.3214 30.1004 12.7679C33.9844 10.1339 35.692 10.6808 35.692 10.6808C36.7969 13.4821 36.1049 15.558 35.8929 16.0714C37.1987 17.5 37.9911 19.3192 37.9911 21.5402C37.9911 29.3638 33.2254 31.0826 28.6942 31.5848C29.4196 32.221 30.0781 33.4598 30.0781 35.3571C30.0781 38.0804 30.0558 40.279 30.0558 40.9487C30.0558 41.4955 30.4241 42.1205 31.4509 41.9308C39.5424 39.2299 45.3683 31.6071 45.3683 22.6005C45.3683 11.3505 36.25 2.23215 25 2.23215Z" fill="#181616"/>
<path d="M12.3438 31.4732C12.2991 31.5737 12.1429 31.6071 11.9978 31.5402C11.8527 31.4732 11.7634 31.3393 11.8192 31.2388C11.8638 31.1384 12.0201 31.1049 12.1652 31.1719C12.3103 31.2388 12.3996 31.3728 12.3438 31.4732Z" fill="#181616"/>
<path d="M13.1696 32.3996C13.0692 32.4888 12.8795 32.4442 12.7567 32.3103C12.6228 32.1652 12.6004 31.9755 12.7009 31.8862C12.8013 31.7969 12.9799 31.8415 13.1138 31.9755C13.2478 32.1205 13.2701 32.3103 13.1696 32.3996Z" fill="#181616"/>
<path d="M13.9732 33.5714C13.8504 33.6607 13.6496 33.5826 13.5156 33.3929C13.3929 33.2143 13.3929 32.9911 13.5156 32.9018C13.6384 32.8125 13.8393 32.8906 13.9732 33.0692C14.1071 33.2589 14.1071 33.4821 13.9732 33.5714Z" fill="#181616"/>
<path d="M15.0781 34.6987C14.9665 34.8214 14.7321 34.788 14.5536 34.6205C14.375 34.4531 14.3304 34.2188 14.442 34.096C14.5536 33.9732 14.7991 34.0067 14.9665 34.1741C15.1451 34.3527 15.1897 34.5871 15.0781 34.6987Z" fill="#181616"/>
<path d="M16.596 35.3571C16.5513 35.5134 16.317 35.5915 16.0826 35.5246C15.8482 35.4576 15.7031 35.2679 15.7478 35.1116C15.7924 34.9554 16.0268 34.8772 16.2612 34.9442C16.4844 35.0112 16.6406 35.2009 16.596 35.3571Z" fill="#181616"/>
<path d="M18.2589 35.4799C18.2701 35.6473 18.0692 35.7924 17.8237 35.7924C17.5781 35.8036 17.3884 35.6585 17.3772 35.4911C17.3772 35.3237 17.567 35.1786 17.8125 35.1786C18.058 35.1786 18.2589 35.3125 18.2589 35.4799Z" fill="#181616"/>
<path d="M19.8103 35.2232C19.8438 35.3906 19.6763 35.558 19.4308 35.6027C19.1964 35.6473 18.9732 35.5469 18.9509 35.3795C18.9174 35.2121 19.096 35.0446 19.3304 35C19.5647 34.9554 19.7768 35.0558 19.8103 35.2232Z" fill="#181616"/>
</svg>