<svg width="35" height="35" viewBox="0 0 35 35" fill="none" xmlns="http://www.w3.org/2000/svg">
<path d="M14.8303 20.1697C15.6066 20.9081 15.6066 22.1199 14.8303 22.8583C14.0919 23.5967 12.8801 23.5967 12.1417 22.8583C10.3683 21.0822 9.37227 18.675 9.37227 16.1652C9.37227 13.6553 10.3683 11.2481 12.1417 9.47204L18.8443 2.76944C20.6204 0.996055 23.0276 0 25.5374 0C28.0473 0 30.4545 0.996055 32.2306 2.76944C34.0039 4.54549 35 6.95274 35 9.46257C35 11.9724 34.0039 14.3796 32.2306 16.1557L29.4094 18.9768C29.4283 17.4243 29.1822 15.8717 28.6521 14.3948L29.5419 13.486C30.0727 12.961 30.4941 12.3358 30.7817 11.6468C31.0693 10.9578 31.2174 10.2186 31.2174 9.47204C31.2174 8.72543 31.0693 7.98623 30.7817 7.29723C30.4941 6.60823 30.0727 5.98311 29.5419 5.45805C29.0169 4.92726 28.3918 4.50588 27.7028 4.2183C27.0138 3.93072 26.2746 3.78264 25.528 3.78264C24.7814 3.78264 24.0422 3.93072 23.3532 4.2183C22.6642 4.50588 22.039 4.92726 21.514 5.45805L14.8303 12.1417C14.2995 12.6668 13.8782 13.2919 13.5906 13.9809C13.303 14.6699 13.1549 15.4091 13.1549 16.1557C13.1549 16.9023 13.303 17.6415 13.5906 18.3305C13.8782 19.0195 14.2995 19.6446 14.8303 20.1697ZM20.1697 12.1417C20.9081 11.4033 22.1199 11.4033 22.8583 12.1417C24.6317 13.9178 25.6277 16.325 25.6277 18.8348C25.6277 21.3447 24.6317 23.7519 22.8583 25.528L16.1557 32.2306C14.3796 34.0039 11.9724 35 9.46257 35C6.95274 35 4.54549 34.0039 2.76944 32.2306C0.996055 30.4545 0 28.0473 0 25.5374C0 23.0276 0.996055 20.6204 2.76944 18.8443L5.59059 16.0232C5.57166 17.5757 5.8178 19.1283 6.34795 20.6241L5.45805 21.514C4.92726 22.039 4.50588 22.6642 4.2183 23.3532C3.93072 24.0422 3.78264 24.7814 3.78264 25.528C3.78264 26.2746 3.93072 27.0138 4.2183 27.7028C4.50588 28.3918 4.92726 29.0169 5.45805 29.5419C5.98311 30.0727 6.60823 30.4941 7.29723 30.7817C7.98623 31.0693 8.72543 31.2174 9.47204 31.2174C10.2186 31.2174 10.9578 31.0693 11.6468 30.7817C12.3358 30.4941 12.961 30.0727 13.486 29.5419L20.1697 22.8583C20.7005 22.3332 21.1218 21.7081 21.4094 21.0191C21.697 20.3301 21.8451 19.5909 21.8451 18.8443C21.8451 18.0977 21.697 17.3585 21.4094 16.6695C21.1218 15.9805 20.7005 15.3554 20.1697 14.8303C19.9858 14.658 19.8392 14.4498 19.739 14.2186C19.6388 13.9874 19.5871 13.738 19.5871 13.486C19.5871 13.234 19.6388 12.9847 19.739 12.7535C19.8392 12.5222 19.9858 12.314 20.1697 12.1417Z" fill="#2A66D3"/>
</svg>
